<svg xmlns="http://www.w3.org/2000/svg" xmlns:xlink="http://www.w3.org/1999/xlink" version="1.1" x="0px" y="0px" width="475.931px" height="60.387px" viewBox="0 0 475.931 60.387" enable-background="new 0 0 475.931 60.387" xml:space="preserve" fill="#fff"><g><g><path d="M43.416 0C55.964 0 68.5 0 81.1 0c3.525 0 5.6 2 5.6 5.5 c0.006 16.3 0 32.643-0.001 48.965c-0.001 3.459-2.064 5.492-5.53 5.492c-25.222 0.001-50.443 0-75.665 0 c-3.327 0-5.428-2.058-5.43-5.4C-0.003 38.214-0.002 21.8 0 5.445C0.01 2 2.1 0 5.5 0 C18.131 0 30.8 0 43.4 0z M43.354 3.334c-12.614 0-25.227-0.002-37.84 0.002c-1.68 0-2.213 0.528-2.213 2.2 c0 16.4 0 32.8 0 49.161c0 1.4 0.6 2 2 1.99c2.013 0 4.027-0.03 6 0 c0.701 0 0.977-0.255 1.203-0.87c1.348-3.667 2.731-7.32 4.109-10.975c0.475-1.26 0.743-1.442 2.084-1.442 c16.388-0.002 32.775-0.002 49.2 0c1.318 0 1.6 0.2 2.1 1.471c1.376 3.7 2.8 7.3 4.1 11 c0.234 0.6 0.6 0.9 1.2 0.838c1.887-0.045 3.774-0.014 5.662-0.016c1.9-0.003 2.368-0.479 2.368-2.401 c0.001-16.167 0.003-32.334 0.004-48.501c0-1.966-0.46-2.43-2.437-2.43C68.391 3.3 55.9 3.3 43.4 3.334z M70.802 56.6 c0.019-0.113 0.055-0.184 0.036-0.234c-1.16-3.102-2.312-6.207-3.514-9.292c-0.092-0.237-0.55-0.473-0.838-0.473 c-15.443-0.022-30.888-0.016-46.331-0.032c-0.538 0-0.795 0.182-0.962 0.66c-0.38 1.091-0.784 2.174-1.19 3.3 c-0.753 2.011-1.514 4.019-2.304 6.115C34.157 56.6 52.5 56.6 70.8 56.625z" class="style0"></path><path d="M43.321 36.607c-6.667 0-13.335 0.01-20.003-0.004 c-4.67-0.009-8.334-3.74-8.296-8.414c0.035-4.389 3.729-8.151 8.199-8.163c13.398-0.041 26.796-0.038 40.195-0.001 c4.325 0 7.9 3.5 8.2 7.787c0.29 4.255-2.846 8.103-7.155 8.755c-0.462 0.07-0.941 0.039-1.413 0 C56.468 36.6 49.9 36.6 43.3 36.607z M30.022 23.351c2.158 3.4 2.1 6.7 0 9.96c8.91 0 17.7 0 26.6 0 c-2.161-3.351-2.107-6.627-0.02-9.96C47.696 23.4 38.9 23.4 30 23.351z M23.196 23.3 c-2.808 0.091-5.008 2.383-4.917 5.122c0.092 2.8 2.4 5 5.1 4.951c2.713-0.055 5.028-2.436 4.978-5.118 C28.34 25.5 26 23.2 23.2 23.319z M63.277 33.391c2.721 0 5.024-2.242 5.085-5.002 c0.061-2.717-2.195-5.026-4.97-5.087c-2.772-0.06-5.139 2.25-5.145 5.022C58.242 31 60.6 33.4 63.3 33.391z" class="style0"></path></g></g><g><path d="M105.734 2.918c0-1.181 1.013-2.194 2.194-2.194h0.422c0.928 0 1.6 0.5 2.2 1.266l23.038 33.923L156.62 2 c0.506-0.76 1.266-1.266 2.194-1.266h0.422c1.182 0 2.2 1 2.2 2.194v55.274c0 1.181-1.012 2.194-2.194 2.2 s-2.194-1.013-2.194-2.194V8.741l-21.688 31.561c-0.506 0.76-1.097 1.097-1.857 1.097c-0.759 0-1.35-0.337-1.856-1.097 L109.954 8.741v49.536c0 1.182-0.928 2.11-2.109 2.11s-2.11-0.928-2.11-2.11V2.918z"></path><path d="M179.572 2.834c0-1.182 1.012-2.194 2.195-2.194c1.18 0 2.2 1 2.2 2.194v55.358c0 1.181-1.014 2.194-2.194 2.2 c-1.183 0-2.195-1.013-2.195-2.194V2.834z"></path><path d="M200.076 56.927l21.097-27.004L201.089 4.354c-0.422-0.591-0.76-1.097-0.76-1.688c0-1.013 1.014-2.025 2.109-2.025 c0.845 0 1.4 0.4 1.9 1.097l19.577 25.232l19.325-24.979c0.59-0.76 1.182-1.351 2.109-1.351c1.098 0 1.9 0.9 1.9 2 c0 0.507-0.253 1.012-0.591 1.435l-20.169 25.738l20.844 26.835c0.506 0.6 0.8 1.1 0.8 1.688c0 1.012-1.013 2.025-2.11 2 c-0.844 0-1.35-0.422-1.856-1.097l-20.421-26.498l-20.169 26.245c-0.591 0.759-1.183 1.351-2.109 1.4 c-1.098 0-1.94-0.928-1.94-2.025C199.486 57.9 199.7 57.3 200.1 56.927z"></path><path d="M279.396 5.028h-18.901c-1.098 0-2.025-0.928-2.025-2.025c0-1.097 0.928-2.025 2.025-2.025h42.193 c1.097 0 2 0.9 2 2.025c0 1.097-0.93 2.025-2.026 2.025h-18.903v53.165c0 1.181-1.012 2.194-2.194 2.2 c-1.181 0-2.194-1.013-2.194-2.194V5.028z"></path><path d="M306.399 57.18l25.232-54.684c0.591-1.266 1.436-2.11 2.953-2.11h0.169c1.52 0 2.4 0.8 3 2.11l25.147 54.5 c0.253 0.5 0.3 0.9 0.3 1.351c0 1.097-0.929 2.025-2.109 2.025c-1.013 0-1.773-0.76-2.194-1.688l-6.92-15.189h-34.853 l-6.919 15.274c-0.423 1.013-1.098 1.604-2.11 1.604c-1.097 0-2.026-0.845-2.026-1.857 C306.062 58.2 306.1 57.7 306.4 57.18z M350.113 39.542L334.585 5.366l-15.611 34.176H350.113z"></path><path d="M376.777 3.172c0-1.182 1.013-2.194 2.193-2.194h19.24c12.996 0 21.9 6.7 21.9 18.059v0.169 c0 12.404-10.717 18.818-23.038 18.818h-15.949v20.169c0 1.181-1.013 2.194-2.194 2.194c-1.181 0-2.193-1.013-2.193-2.194V3.172z M397.367 33.973c10.971 0 18.396-5.739 18.396-14.514V19.29c0-9.368-7.258-14.262-17.891-14.262h-16.708v28.945H397.367z"></path><path d="M433.147 57.855V3.172c0-1.182 1.012-2.194 2.193-2.194h38.144c1.097 0 2 0.9 2 2 c0 1.097-0.929 2.025-2.025 2.025h-35.949v23.206h32.151c1.097 0 2 0.9 2 2.026c0 1.097-0.929 2.025-2.025 2.025h-32.151 v23.713h36.37c1.098 0 2 0.9 2 2.025c0 1.097-0.928 2.025-2.025 2.025h-38.564 C434.159 60 433.1 59 433.1 57.855z"></path></g></svg>