<svg style="position: absolute; width: 0; height: 0;" width="0" height="0" version="1.1" xmlns="http://www.w3.org/2000/svg" xmlns:xlink="http://www.w3.org/1999/xlink">
    <defs>
        <symbol id="icon-dots-three-horizontal" viewBox="0 0 20 20">
            <title>dots-three-horizontal</title>
            <path class="path1" d="M10.001 7.8c-1.215 0-2.201 0.985-2.201 2.2s0.986 2.2 2.201 2.2c1.215 0 2.199-0.985 2.199-2.2s-0.984-2.2-2.199-2.2zM3.001 7.8c-1.215 0-2.201 0.985-2.201 2.2s0.986 2.2 2.201 2.2c1.215 0 2.199-0.986 2.199-2.2s-0.984-2.2-2.199-2.2zM17.001 7.8c-1.215 0-2.201 0.985-2.201 2.2s0.986 2.2 2.201 2.2c1.215 0 2.199-0.985 2.199-2.2s-0.984-2.2-2.199-2.2z"></path>
        </symbol>
        <symbol id="icon-download" viewBox="0 0 20 20">
            <title>download</title>
            <path class="path1" d="M14.375 8.75l-5 5-5-5h3.125v-7.5h3.75v7.5zM9.375 13.75h-9.375v5h18.75v-5h-9.375zM17.5 16.25h-2.5v-1.25h2.5v1.25z"></path>
        </symbol>
        <symbol id="icon-share" viewBox="0 0 20 20">
            <title>share</title>
            <path class="path1" d="M16.875 13.75c-0.882 0-1.678 0.366-2.246 0.954l-8.418-4.209c0.026-0.161 0.039-0.326 0.039-0.495s-0.014-0.334-0.039-0.495l8.418-4.209c0.568 0.588 1.364 0.954 2.246 0.954 1.726 0 3.125-1.399 3.125-3.125s-1.399-3.125-3.125-3.125-3.125 1.399-3.125 3.125c0 0.168 0.014 0.334 0.039 0.495l-8.418 4.209c-0.568-0.588-1.364-0.954-2.246-0.954-1.726 0-3.125 1.399-3.125 3.125s1.399 3.125 3.125 3.125c0.882 0 1.678-0.366 2.246-0.954l8.418 4.209c-0.026 0.161-0.039 0.326-0.039 0.495 0 1.726 1.399 3.125 3.125 3.125s3.125-1.399 3.125-3.125c0-1.726-1.399-3.125-3.125-3.125z"></path>
        </symbol>
        <symbol id="icon-twitter" viewBox="0 0 20 20">
            <title>twitter</title>
            <path class="path1" d="M20 4.422c-0.734 0.328-1.527 0.547-2.355 0.645 0.848-0.508 1.496-1.313 1.805-2.27-0.793 0.469-1.672 0.812-2.605 0.996-0.75-0.797-1.816-1.293-2.996-1.293-2.266 0-4.102 1.836-4.102 4.102 0 0.32 0.035 0.633 0.105 0.934-3.41-0.172-6.434-1.805-8.457-4.289-0.352 0.605-0.555 1.313-0.555 2.062 0 1.422 0.723 2.68 1.824 3.414-0.672-0.020-1.305-0.207-1.859-0.512 0 0.016 0 0.035 0 0.051 0 1.988 1.414 3.648 3.293 4.023-0.344 0.094-0.707 0.145-1.082 0.145-0.266 0-0.52-0.027-0.773-0.074 0.523 1.629 2.039 2.816 3.832 2.852-1.406 1.102-3.172 1.758-5.098 1.758-0.332 0-0.656-0.020-0.98-0.059 1.82 1.168 3.977 1.844 6.293 1.844 7.547 0 11.676-6.254 11.676-11.676 0-0.18-0.004-0.355-0.012-0.531 0.801-0.574 1.496-1.297 2.047-2.121z"></path>
        </symbol>
        <symbol id="icon-facebook" viewBox="0 0 20 20">
            <title>facebook</title>
            <path class="path1" d="M11.875 3.75h3.125v-3.75h-3.125c-2.412 0-4.375 1.963-4.375 4.375v1.875h-2.5v3.75h2.5v10h3.75v-10h3.125l0.625-3.75h-3.75v-1.875c0-0.339 0.286-0.625 0.625-0.625z"></path>
        </symbol>
        <symbol id="icon-headphones" viewBox="0 0 20 20">
            <title>headphones</title>
            <path class="path1" d="M5.625 11.25h-1.25v8.75h1.25c0.344 0 0.625-0.281 0.625-0.625v-7.5c0-0.344-0.281-0.625-0.625-0.625z"></path>
            <path class="path2" d="M14.375 11.25c-0.344 0-0.625 0.281-0.625 0.625v7.5c0 0.344 0.281 0.625 0.625 0.625h1.25v-8.75h-1.25z"></path>
            <path class="path3" d="M20 10c0-5.523-4.477-10-10-10s-10 4.477-10 10c0 1.199 0.212 2.349 0.599 3.415-0.38 0.649-0.599 1.404-0.599 2.21 0 2.204 1.63 4.027 3.75 4.33v-8.661c-0.623 0.089-1.204 0.309-1.714 0.632-0.105-0.522-0.161-1.062-0.161-1.615 0-4.487 3.638-8.125 8.125-8.125s8.125 3.638 8.125 8.125c0 0.553-0.055 1.093-0.161 1.615-0.51-0.323-1.091-0.544-1.714-0.633v8.661c2.12-0.303 3.75-2.126 3.75-4.33 0-0.806-0.218-1.561-0.599-2.21 0.387-1.066 0.599-2.216 0.599-3.415z"></path>
        </symbol>
        <symbol id="icon-image" viewBox="0 0 20 20">
            <title>image</title>
            <path class="path1" d="M18.748 2.5c0.001 0.001 0.002 0.001 0.002 0.002v14.996c-0.001 0.001-0.001 0.002-0.002 0.002h-17.496c-0.001-0.001-0.002-0.001-0.002-0.002v-14.996c0.001-0.001 0.001-0.002 0.002-0.002h17.496zM18.75 1.25h-17.5c-0.688 0-1.25 0.563-1.25 1.25v15c0 0.688 0.563 1.25 1.25 1.25h17.5c0.688 0 1.25-0.563 1.25-1.25v-15c0-0.688-0.563-1.25-1.25-1.25v0z"></path>
            <path class="path2" d="M16.25 5.625c0 1.036-0.839 1.875-1.875 1.875s-1.875-0.839-1.875-1.875 0.839-1.875 1.875-1.875 1.875 0.839 1.875 1.875z"></path>
            <path class="path3" d="M17.5 16.25h-15v-2.5l4.375-7.5 5 6.25h1.25l4.375-3.75z"></path>
        </symbol>
        <symbol id="icon-heart" viewBox="0 0 20 20">
            <title>heart</title>
            <path class="path1" d="M14.75 1.25c-2.102 0-3.911 1.71-4.749 3.496-0.839-1.786-2.648-3.496-4.75-3.496-2.898 0-5.25 2.352-5.25 5.251 0 5.895 5.947 7.441 10 13.27 3.831-5.793 10-7.563 10-13.27 0-2.898-2.352-5.251-5.25-5.251z"></path>
        </symbol>
        <symbol id="icon-shuffle" viewBox="0 0 20 20">
            <title>shuffle</title>
            <path class="path1" d="M15 13.75h-1.982l-3.125-3.125 3.125-3.125h1.982v3.125l4.375-4.375-4.375-4.375v3.125h-2.5c-0.332 0-0.649 0.132-0.884 0.366l-3.491 3.491-3.491-3.491c-0.234-0.234-0.552-0.366-0.884-0.366h-3.75v2.5h3.232l3.125 3.125-3.125 3.125h-3.232v2.5h3.75c0.332 0 0.649-0.132 0.884-0.366l3.491-3.491 3.491 3.491c0.234 0.234 0.552 0.366 0.884 0.366h2.5v3.125l4.375-4.375-4.375-4.375v3.125z"></path>
        </symbol>
        <symbol id="icon-loop" viewBox="0 0 20 20">
            <title>loop</title>
            <path class="path1" d="M17.377 3.248c-1.828-1.996-4.456-3.248-7.377-3.248-5.523 0-10 4.477-10 10h1.875c0-4.487 3.638-8.125 8.125-8.125 2.403 0 4.561 1.043 6.049 2.701l-2.924 2.924h6.875v-6.875l-2.623 2.623z"></path>
            <path class="path2" d="M18.125 10c0 4.487-3.638 8.125-8.125 8.125-2.403 0-4.561-1.043-6.049-2.701l2.924-2.924h-6.875v6.875l2.623-2.623c1.828 1.996 4.456 3.248 7.377 3.248 5.523 0 10-4.477 10-10h-1.875z"></path>
        </symbol>
        <symbol id="icon-volume-decrease" viewBox="0 0 20 20">
            <title>volume-decrease</title>
            <path class="path1" d="M10 8.75h10v2.5h-10v-2.5z"></path>
            <path class="path2" d="M8.125 18.75c-0.163 0-0.322-0.063-0.442-0.183l-4.817-4.817h-2.241c-0.345 0-0.625-0.28-0.625-0.625v-6.25c0-0.345 0.28-0.625 0.625-0.625h2.241l4.817-4.817c0.179-0.179 0.448-0.232 0.681-0.135s0.386 0.325 0.386 0.577v16.25c0 0.253-0.152 0.481-0.386 0.577-0.077 0.032-0.159 0.048-0.239 0.048z"></path>
        </symbol>
        <symbol id="icon-volume-increase" viewBox="0 0 20 20">
            <title>volume-increase</title>
            <path class="path1" d="M20 11.25h-3.75v3.75h-2.5v-3.75h-3.75v-2.5h3.75v-3.75h2.5v3.75h3.75v2.5z"></path>
            <path class="path2" d="M8.125 18.75c-0.163 0-0.322-0.063-0.442-0.183l-4.817-4.817h-2.241c-0.345 0-0.625-0.28-0.625-0.625v-6.25c0-0.345 0.28-0.625 0.625-0.625h2.241l4.817-4.817c0.179-0.179 0.448-0.232 0.681-0.135s0.386 0.325 0.386 0.577v16.25c0 0.253-0.152 0.481-0.386 0.577-0.077 0.032-0.159 0.048-0.239 0.048z"></path>
        </symbol>
        <symbol id="icon-last" viewBox="0 0 20 20">
            <title>last</title>
            <path class="path1" d="M17.5 2.5v15h-2.5v-6.875l-6.25 6.25v-6.25l-6.25 6.25v-13.75l6.25 6.25v-6.25l6.25 6.25v-6.875z"></path>
        </symbol>
        <symbol id="icon-first" viewBox="0 0 20 20">
            <title>first</title>
            <path class="path1" d="M2.5 17.5v-15h2.5v6.875l6.25-6.25v6.25l6.25-6.25v13.75l-6.25-6.25v6.25l-6.25-6.25v6.875z"></path>
        </symbol>
        <symbol id="icon-next" viewBox="0 0 20 20">
            <title>next</title>
            <path class="path1" d="M10 0c5.523 0 10 4.477 10 10s-4.477 10-10 10-10-4.477-10-10 4.477-10 10-10zM10 18.125c4.487 0 8.125-3.638 8.125-8.125s-3.638-8.125-8.125-8.125-8.125 3.638-8.125 8.125 3.638 8.125 8.125 8.125z"></path>
            <path class="path2" d="M11.25 10l-5-3.75v7.5z"></path>
            <path class="path3" d="M13.75 6.25h-2.5v7.5h2.5v-7.5z"></path>
        </symbol>
        <symbol id="icon-previous" viewBox="0 0 20 20">
            <title>previous</title>
            <path class="path1" d="M10 0c-5.523 0-10 4.477-10 10s4.477 10 10 10 10-4.477 10-10-4.477-10-10-10zM10 18.125c-4.487 0-8.125-3.638-8.125-8.125s3.638-8.125 8.125-8.125 8.125 3.638 8.125 8.125-3.638 8.125-8.125 8.125z"></path>
            <path class="path2" d="M8.75 10l5-3.75v7.5z"></path>
            <path class="path3" d="M6.25 6.25h2.5v7.5h-2.5v-7.5z"></path>
        </symbol>
        <symbol id="icon-play" viewBox="0 0 20 20">
            <title>play</title>
            <path class="path1" d="M3.75 2.5l12.5 7.5-12.5 7.5z"></path>
        </symbol>
        <symbol id="icon-play2" viewBox="0 0 20 20">
            <title>play2</title>
            <path class="path1" d="M10 0c-5.523 0-10 4.477-10 10s4.477 10 10 10 10-4.477 10-10-4.477-10-10-10zM10 18.125c-4.487 0-8.125-3.638-8.125-8.125s3.638-8.125 8.125-8.125 8.125 3.638 8.125 8.125-3.638 8.125-8.125 8.125zM7.5 5.625l7.5 4.375-7.5 4.375z"></path>
        </symbol>
    </defs>
</svg>
